<?xml version="1.0" encoding="utf-8"?>
<!-- Generator: Adobe Illustrator 28.0.0, SVG Export Plug-In . SVG Version: 6.00 Build 0)  -->
<svg version="1.1" id="Layer_1" xmlns="http://www.w3.org/2000/svg" xmlns:xlink="http://www.w3.org/1999/xlink" x="0px" y="0px"
	 viewBox="0 0 1000 1000" style="enable-background:new 0 0 1000 1000;" xml:space="preserve">
<style type="text/css">
	.st0{fill:#FFFFFF;}
	.st1{fill:#3236AB;}
	.st2{fill:#E15016;}
	.st3{fill:#FF8643;}
	.st4{fill:#333333;}
	.st5{fill:#E6E6E6;}
</style>
<rect x="0" class="st0" width="1000" height="1000"/>
<rect x="-2108" width="1000" height="1000"/>
<g>
	<g>
		<polygon class="st1" points="-1848.92,538.74 -1851.29,498.41 -1834.08,498.41 -1834.82,529.27 -1833.72,529.55 -1817.76,498.41 
			-1800.72,498.41 -1824.67,538.74 		"/>
		<path class="st1" d="M-1809.48,538.74l8.43-31.41h13.62l-8.43,31.41H-1809.48z M-1800.16,503.94l1.48-5.52h13.62l-1.48,5.52
			H-1800.16z"/>
		<path class="st1" d="M-1792.35,538.74l8.43-31.41h13.62l-0.38,1.46l1.06-0.4c2.39-0.9,4.92-1.35,7.5-1.35
			c2.12,0,3.75,0.03,4.87,0.08l-1.65,6.15c-2.1-0.33-4.27-0.5-6.47-0.5c-4.24,0-7.05,2.49-8.38,7.41l-4.98,18.56H-1792.35z"/>
		<polygon class="st1" points="-1756.13,538.74 -1749.79,515.06 -1757.02,515.06 -1754.94,507.33 -1747.7,507.33 -1745.32,498.41 
			-1731.7,498.41 -1734.07,507.33 -1726.84,507.33 -1728.93,515.06 -1736.17,515.06 -1742.51,538.74 		"/>
		<path class="st1" d="M-1719.63,539.03c-6.84,0-10.16-2.52-10.16-7.7c0-1.39,0.25-2.98,0.73-4.74l5.16-19.26h13.62l-5.45,20.32
			c-0.22,0.86-0.34,1.63-0.34,2.29c0,2.15,1.25,3.33,3.51,3.33c2.89,0,4.83-1.8,5.78-5.36l5.53-20.59h13.62l-8.43,31.41h-13.62
			l0.39-1.49l-1.07,0.43C-1712.61,538.58-1715.72,539.03-1719.63,539.03z"/>
	</g>
	<g>
		<path class="st2" d="M-1691.38,538.74l2.09-7.72h19.13c3.57,0,5.72-1.34,6.41-4c0.13-0.42,0.19-0.84,0.19-1.22
			c0-1.4-0.82-3.07-4.72-3.07h-7.99c-5.75,0-8.54-2.16-8.54-6.6c0-1.24,0.22-2.67,0.65-4.25l0.61-2.29
			c2.01-7.5,6.62-11.15,14.12-11.15l25.53-0.03l-2.06,7.75h-17.68c-3.56,0-5.73,1.34-6.44,3.99c-0.13,0.42-0.19,0.84-0.19,1.22
			c0.02,1.41,0.85,3.07,4.72,3.07h7.99c5.75,0,8.54,2.16,8.54,6.6c0,1.24-0.21,2.66-0.62,4.23l-0.61,2.29
			c-2.02,7.52-6.65,11.18-14.15,11.18H-1691.38z"/>
		<polygon class="st2" points="-1621.68,538.74 -1621.15,527.28 -1622.26,527 -1628,538.74 -1642.76,538.74 -1642.93,507.33 
			-1629.36,507.33 -1631.84,524.04 -1630.74,524.38 -1622.41,507.33 -1610.3,507.33 -1611.11,524.07 -1609.99,524.31 
			-1603.38,507.33 -1589.93,507.33 -1606.94,538.74 		"/>
		<path class="st2" d="M-1595.21,538.74l8.43-31.41h13.62l-8.43,31.41H-1595.21z M-1585.89,503.94l1.48-5.52h13.62l-1.48,5.52
			H-1585.89z"/>
		<path class="st2" d="M-1571.42,538.74l6.34-23.69h-7.24l2.09-7.72h7.59l0.16-0.33c3.54-7.31,10.56-11.02,20.85-11.02h4.19
			l-1.69,6.36h-2.82c-3.12,0-5.42,1.39-6.83,4.14l-0.44,0.85h7.09l-2.09,7.72h-7.24l-6.34,23.69H-1571.42z"/>
		<polygon class="st2" points="-1539.28,538.74 -1532.94,515.06 -1540.18,515.06 -1538.09,507.33 -1530.85,507.33 -1528.47,498.41 
			-1514.85,498.41 -1517.23,507.33 -1509.99,507.33 -1512.08,515.06 -1519.32,515.06 -1525.66,538.74 		"/>
	</g>
</g>
<polygon class="st1" points="-1500.3,539.03 -1433.25,539.03 -1465.5,516.98 "/>
<polygon class="st1" points="-1384.46,510.56 -1401.71,510.56 -1372.18,457.4 -1431.97,495.74 -1433.25,539.03 -1426.83,539.03 
	-1395.01,526.32 -1375.53,525.75 -1384.46,518.15 "/>
<polygon class="st2" points="-1439.56,489.46 -1529.79,473.02 -1465.5,516.98 -1465.5,516.98 -1431.97,495.74 "/>
<polygon class="st3" points="-1465.5,516.98 -1433.25,539.03 -1433.25,539.03 -1431.97,495.74 "/>
<g>
	<g>
		<polygon class="st1" points="-2902.92,538.74 -2905.29,498.41 -2888.08,498.41 -2888.82,529.27 -2887.72,529.55 -2871.75,498.41 
			-2854.72,498.41 -2878.67,538.74 		"/>
		<path class="st1" d="M-2863.48,538.74l8.43-31.41h13.62l-8.43,31.41H-2863.48z M-2854.16,503.94l1.48-5.52h13.62l-1.48,5.52
			H-2854.16z"/>
		<path class="st1" d="M-2846.35,538.74l8.43-31.41h13.62l-0.38,1.46l1.06-0.4c2.39-0.9,4.92-1.35,7.5-1.35
			c2.12,0,3.75,0.03,4.87,0.08l-1.65,6.15c-2.1-0.33-4.27-0.5-6.47-0.5c-4.24,0-7.05,2.49-8.38,7.41l-4.98,18.56H-2846.35z"/>
		<polygon class="st1" points="-2810.13,538.74 -2803.79,515.06 -2811.02,515.06 -2808.94,507.33 -2801.7,507.33 -2799.32,498.41 
			-2785.7,498.41 -2788.07,507.33 -2780.84,507.33 -2782.93,515.06 -2790.17,515.06 -2796.51,538.74 		"/>
		<path class="st1" d="M-2773.63,539.03c-6.84,0-10.16-2.52-10.16-7.7c0-1.39,0.25-2.98,0.73-4.74l5.16-19.26h13.62l-5.45,20.32
			c-0.22,0.86-0.34,1.63-0.34,2.29c0,2.15,1.25,3.33,3.51,3.33c2.89,0,4.83-1.8,5.78-5.36l5.53-20.59h13.62l-8.43,31.41h-13.62
			l0.39-1.49l-1.07,0.43C-2766.61,538.58-2769.72,539.03-2773.63,539.03z"/>
	</g>
	<g>
		<path class="st2" d="M-2745.39,538.74l2.09-7.72h19.13c3.57,0,5.72-1.34,6.41-4c0.13-0.42,0.19-0.84,0.19-1.22
			c0-1.4-0.82-3.07-4.72-3.07h-7.99c-5.75,0-8.54-2.16-8.54-6.6c0-1.24,0.22-2.67,0.65-4.25l0.61-2.29
			c2.01-7.5,6.62-11.15,14.12-11.15l25.53-0.03l-2.06,7.75h-17.68c-3.56,0-5.73,1.34-6.44,3.99c-0.13,0.42-0.19,0.84-0.19,1.22
			c0.02,1.41,0.85,3.07,4.72,3.07h7.99c5.75,0,8.54,2.16,8.54,6.6c0,1.24-0.21,2.66-0.62,4.23l-0.61,2.29
			c-2.02,7.52-6.65,11.18-14.15,11.18H-2745.39z"/>
		<polygon class="st2" points="-2675.68,538.74 -2675.16,527.28 -2676.26,527 -2682,538.74 -2696.76,538.74 -2696.93,507.33 
			-2683.36,507.33 -2685.84,524.04 -2684.74,524.38 -2676.41,507.33 -2664.3,507.33 -2665.11,524.07 -2663.99,524.31 
			-2657.38,507.33 -2643.93,507.33 -2660.94,538.74 		"/>
		<path class="st2" d="M-2649.21,538.74l8.43-31.41h13.62l-8.43,31.41H-2649.21z M-2639.89,503.94l1.48-5.52h13.62l-1.48,5.52
			H-2639.89z"/>
		<path class="st2" d="M-2625.42,538.74l6.34-23.69h-7.24l2.09-7.72h7.59l0.16-0.33c3.54-7.31,10.56-11.02,20.85-11.02h4.19
			l-1.69,6.36h-2.82c-3.12,0-5.42,1.39-6.83,4.14l-0.44,0.85h7.09l-2.09,7.72h-7.24l-6.34,23.69H-2625.42z"/>
		<polygon class="st2" points="-2593.28,538.74 -2586.94,515.06 -2594.18,515.06 -2592.09,507.33 -2584.85,507.33 -2582.47,498.41 
			-2568.85,498.41 -2571.23,507.33 -2563.99,507.33 -2566.08,515.06 -2573.32,515.06 -2579.66,538.74 		"/>
	</g>
</g>
<polygon class="st1" points="-2554.3,539.03 -2487.25,539.03 -2519.5,516.98 "/>
<polygon class="st1" points="-2438.46,510.56 -2455.71,510.56 -2426.18,457.4 -2485.97,495.74 -2487.25,539.03 -2480.83,539.03 
	-2449.01,526.32 -2429.53,525.75 -2438.46,518.15 "/>
<polygon class="st2" points="-2493.56,489.46 -2583.79,473.02 -2519.5,516.98 -2519.5,516.98 -2485.97,495.74 "/>
<polygon class="st3" points="-2519.5,516.98 -2487.25,539.03 -2487.25,539.03 -2485.97,495.74 "/>
<g>
	<g>
		<polygon points="259.08,538.74 256.71,498.41 273.92,498.41 273.18,529.27 274.28,529.55 290.25,498.41 307.28,498.41 
			283.33,538.74 		"/>
		<path d="M298.52,538.74l8.43-31.41h13.62l-8.43,31.41H298.52z M307.84,503.94l1.48-5.52h13.62l-1.48,5.52H307.84z"/>
		<path d="M315.65,538.74l8.43-31.41h13.62l-0.38,1.46l1.06-0.4c2.39-0.9,4.92-1.35,7.5-1.35c2.12,0,3.75,0.03,4.87,0.08l-1.65,6.15
			c-2.1-0.33-4.27-0.5-6.47-0.5c-4.24,0-7.05,2.49-8.38,7.41l-4.98,18.56H315.65z"/>
		<polygon points="351.87,538.74 358.21,515.06 350.98,515.06 353.06,507.33 360.3,507.33 362.68,498.41 376.3,498.41 
			373.93,507.33 381.16,507.33 379.07,515.06 371.83,515.06 365.49,538.74 		"/>
		<path d="M388.37,539.03c-6.84,0-10.16-2.52-10.16-7.7c0-1.39,0.25-2.98,0.73-4.74l5.16-19.26h13.62l-5.45,20.32
			c-0.22,0.86-0.34,1.63-0.34,2.29c0,2.15,1.25,3.33,3.51,3.33c2.89,0,4.83-1.8,5.78-5.36l5.53-20.59h13.62l-8.43,31.41h-13.62
			l0.39-1.49l-1.07,0.43C395.39,538.58,392.28,539.03,388.37,539.03z"/>
	</g>
	<g>
		<path d="M416.62,538.74l2.09-7.72h19.13c3.57,0,5.72-1.34,6.41-4c0.13-0.42,0.19-0.84,0.19-1.22c0-1.4-0.82-3.07-4.72-3.07h-7.99
			c-5.75,0-8.54-2.16-8.54-6.6c0-1.24,0.22-2.67,0.65-4.25l0.61-2.29c2.01-7.5,6.62-11.15,14.12-11.15l25.53-0.03l-2.06,7.75h-17.68
			c-3.56,0-5.73,1.34-6.44,3.99c-0.13,0.42-0.19,0.84-0.19,1.22c0.02,1.41,0.85,3.07,4.72,3.07h7.99c5.75,0,8.54,2.16,8.54,6.6
			c0,1.24-0.21,2.66-0.62,4.23l-0.61,2.29c-2.02,7.52-6.65,11.18-14.15,11.18H416.62z"/>
		<polygon points="486.32,538.74 486.85,527.28 485.74,527 480,538.74 465.24,538.74 465.07,507.33 478.64,507.33 476.16,524.04 
			477.26,524.38 485.59,507.33 497.7,507.33 496.89,524.07 498.01,524.31 504.62,507.33 518.07,507.33 501.06,538.74 		"/>
		<path d="M512.79,538.74l8.43-31.41h13.62l-8.43,31.41H512.79z M522.11,503.94l1.48-5.52h13.62l-1.48,5.52H522.11z"/>
		<path d="M536.58,538.74l6.34-23.69h-7.24l2.09-7.72h7.59l0.16-0.33c3.54-7.31,10.56-11.02,20.85-11.02h4.19l-1.69,6.36h-2.82
			c-3.12,0-5.42,1.39-6.83,4.14l-0.44,0.85h7.09l-2.09,7.72h-7.24l-6.34,23.69H536.58z"/>
		<polygon points="568.72,538.74 575.06,515.06 567.82,515.06 569.91,507.33 577.15,507.33 579.53,498.41 593.15,498.41 
			590.77,507.33 598.01,507.33 595.92,515.06 588.68,515.06 582.34,538.74 		"/>
	</g>
</g>
<polygon points="607.7,539.03 674.75,539.03 642.5,516.98 "/>
<polygon points="723.54,510.56 706.29,510.56 735.82,457.4 676.03,495.74 674.75,539.03 681.17,539.03 712.99,526.32 732.47,525.75 
	723.54,518.15 "/>
<polygon points="668.44,489.46 578.21,473.02 642.5,516.98 642.5,516.98 676.03,495.74 "/>
<polygon class="st4" points="642.5,516.98 674.75,539.03 674.75,539.03 676.03,495.74 "/>
<rect x="-1054" width="1000" height="1000"/>
<g>
	<g>
		<polygon class="st0" points="-794.92,538.74 -797.29,498.41 -780.09,498.41 -780.82,529.27 -779.72,529.55 -763.76,498.41 
			-746.72,498.41 -770.67,538.74 		"/>
		<path class="st0" d="M-755.48,538.74l8.43-31.41h13.62l-8.43,31.41H-755.48z M-746.16,503.94l1.48-5.52h13.62l-1.48,5.52H-746.16z
			"/>
		<path class="st0" d="M-738.35,538.74l8.43-31.41h13.62l-0.38,1.46l1.06-0.4c2.39-0.9,4.92-1.35,7.5-1.35
			c2.12,0,3.75,0.03,4.87,0.08l-1.65,6.15c-2.1-0.33-4.27-0.5-6.47-0.5c-4.24,0-7.05,2.49-8.38,7.41l-4.98,18.56H-738.35z"/>
		<polygon class="st0" points="-702.13,538.74 -695.79,515.06 -703.02,515.06 -700.94,507.33 -693.7,507.33 -691.32,498.41 
			-677.7,498.41 -680.07,507.33 -672.84,507.33 -674.93,515.06 -682.17,515.06 -688.51,538.74 		"/>
		<path class="st0" d="M-665.63,539.03c-6.84,0-10.16-2.52-10.16-7.7c0-1.39,0.25-2.98,0.73-4.74l5.16-19.26h13.62l-5.45,20.32
			c-0.22,0.86-0.34,1.63-0.34,2.29c0,2.15,1.25,3.33,3.51,3.33c2.89,0,4.83-1.8,5.78-5.36l5.53-20.59h13.62l-8.43,31.41h-13.62
			l0.39-1.49l-1.07,0.43C-658.61,538.58-661.72,539.03-665.63,539.03z"/>
	</g>
	<g>
		<path class="st0" d="M-637.38,538.74l2.09-7.72h19.13c3.57,0,5.72-1.34,6.41-4c0.13-0.42,0.19-0.84,0.19-1.22
			c0-1.4-0.82-3.07-4.72-3.07h-7.99c-5.75,0-8.54-2.16-8.54-6.6c0-1.24,0.22-2.67,0.65-4.25l0.61-2.29
			c2.01-7.5,6.62-11.15,14.12-11.15l25.53-0.03l-2.06,7.75h-17.68c-3.56,0-5.73,1.34-6.44,3.99c-0.13,0.42-0.19,0.84-0.19,1.22
			c0.02,1.41,0.85,3.07,4.72,3.07h7.99c5.75,0,8.54,2.16,8.54,6.6c0,1.24-0.21,2.66-0.62,4.23l-0.61,2.29
			c-2.02,7.52-6.65,11.18-14.15,11.18H-637.38z"/>
		<polygon class="st0" points="-567.68,538.74 -567.15,527.28 -568.26,527 -574,538.74 -588.76,538.74 -588.93,507.33 
			-575.36,507.33 -577.84,524.04 -576.74,524.38 -568.41,507.33 -556.3,507.33 -557.11,524.07 -555.99,524.31 -549.38,507.33 
			-535.93,507.33 -552.94,538.74 		"/>
		<path class="st0" d="M-541.21,538.74l8.43-31.41h13.62l-8.43,31.41H-541.21z M-531.89,503.94l1.48-5.52h13.62l-1.48,5.52H-531.89z
			"/>
		<path class="st0" d="M-517.42,538.74l6.34-23.69h-7.24l2.09-7.72h7.59l0.16-0.33c3.54-7.31,10.56-11.02,20.85-11.02h4.19
			l-1.69,6.36h-2.82c-3.12,0-5.42,1.39-6.83,4.14l-0.44,0.85h7.09l-2.09,7.72h-7.24l-6.34,23.69H-517.42z"/>
		<polygon class="st0" points="-485.28,538.74 -478.94,515.06 -486.18,515.06 -484.09,507.33 -476.85,507.33 -474.47,498.41 
			-460.85,498.41 -463.23,507.33 -455.99,507.33 -458.08,515.06 -465.32,515.06 -471.66,538.74 		"/>
	</g>
</g>
<polygon class="st0" points="-446.3,539.03 -379.25,539.03 -411.5,516.98 "/>
<polygon class="st0" points="-330.46,510.56 -347.71,510.56 -318.18,457.4 -377.97,495.74 -379.25,539.03 -372.83,539.03 
	-341.01,526.32 -321.53,525.75 -330.46,518.15 "/>
<polygon class="st0" points="-385.56,489.46 -475.79,473.02 -411.5,516.98 -411.5,516.98 -377.97,495.74 "/>
<polygon class="st5" points="-411.5,516.98 -379.25,539.03 -379.25,539.03 -377.97,495.74 "/>
</svg>
